<svg width="26" height="26" viewBox="0 0 26 26" fill="none" xmlns="http://www.w3.org/2000/svg">
<rect x="0.5" y="0.5" width="25" height="25" rx="3.5" fill="#DEF1FF" stroke="#108AE6"/>
<path d="M19.6768 8.42294L16.951 6.71125L12.5128 13.7796L15.237 15.4896L19.6768 8.42294ZM12.0971 15.9531L12.037 17.5591L13.4584 16.807L14.7803 16.1095L12.1517 14.458L12.0971 15.9531ZM20.4041 5.8225L18.9793 4.92644C18.807 4.81833 18.5988 4.78307 18.4005 4.82843C18.2022 4.87379 18.03 4.99604 17.9218 5.16831L17.3593 6.06156L20.0835 7.77269L20.646 6.88056C20.871 6.52056 20.7641 6.04637 20.4041 5.82137V5.8225ZM18.1738 19.2212C18.1738 19.3759 18.0473 19.5025 17.8926 19.5025H7.20508C7.13049 19.5025 7.05895 19.4729 7.0062 19.4201C6.95346 19.3674 6.92383 19.2958 6.92383 19.2212V8.53375C6.92383 8.45916 6.95346 8.38762 7.0062 8.33488C7.05895 8.28213 7.13049 8.2525 7.20508 8.2525H14.6548L15.7146 6.565H7.20508C6.11945 6.565 5.23633 7.44813 5.23633 8.53375V19.2212C5.23633 20.3069 6.11945 21.19 7.20508 21.19H17.8926C18.9782 21.19 19.8613 20.3069 19.8613 19.2212V10.2421L18.1738 12.9286V19.2229V19.2212Z" fill="#108AE6"/>
</svg>
