<svg width="26" height="26" viewBox="0 0 26 26" fill="none" xmlns="http://www.w3.org/2000/svg">
<rect x="0.5" y="0.5" width="25" height="25" rx="3.5" fill="#DBFFFF" stroke="#23BFC1"/>
<path d="M18.3438 7.9375H10.4688C9.79742 7.9375 9.15359 8.20418 8.67889 8.67889C8.20418 9.15359 7.9375 9.79742 7.9375 10.4688V18.3438C7.9375 19.0151 8.20418 19.6589 8.67889 20.1336C9.15359 20.6083 9.79742 20.875 10.4688 20.875H18.3438C19.0151 20.875 19.6589 20.6083 20.1336 20.1336C20.6083 19.6589 20.875 19.0151 20.875 18.3438V10.4688C20.875 9.79742 20.6083 9.15359 20.1336 8.67889C19.6589 8.20418 19.0151 7.9375 18.3438 7.9375ZM17.2029 14.9688H14.9688V17.2029C14.9688 17.5056 14.736 17.7654 14.4333 17.7805C14.3573 17.7842 14.2813 17.7724 14.2099 17.7458C14.1385 17.7192 14.0733 17.6784 14.0182 17.6259C13.9631 17.5734 13.9192 17.5102 13.8892 17.4402C13.8592 17.3702 13.8438 17.2949 13.8438 17.2188V14.9688H11.6096C11.3069 14.9688 11.0471 14.736 11.032 14.4333C11.0283 14.3573 11.0401 14.2813 11.0667 14.2099C11.0933 14.1385 11.1341 14.0733 11.1866 14.0182C11.2391 13.9631 11.3023 13.9192 11.3723 13.8892C11.4423 13.8592 11.5176 13.8438 11.5938 13.8438H13.8438V11.6096C13.8438 11.3069 14.0765 11.0471 14.3792 11.032C14.4552 11.0283 14.5312 11.0401 14.6026 11.0667C14.674 11.0933 14.7392 11.1341 14.7943 11.1866C14.8494 11.2391 14.8933 11.3023 14.9233 11.3723C14.9533 11.4423 14.9687 11.5176 14.9688 11.5938V13.8438H17.2188C17.295 13.8437 17.3704 13.8591 17.4405 13.889C17.5105 13.9189 17.5738 13.9628 17.6264 14.018C17.679 14.0731 17.7198 14.1383 17.7465 14.2097C17.7731 14.2811 17.7849 14.3572 17.7812 14.4333C17.7665 14.736 17.5056 14.9688 17.2029 14.9688Z" fill="#23BFC1"/>
<path d="M17.9177 6.8125C17.7426 6.31934 17.4193 5.89242 16.9921 5.59029C16.5648 5.28816 16.0545 5.12563 15.5312 5.125H7.65625C6.98492 5.125 6.34109 5.39168 5.86639 5.86639C5.39168 6.34109 5.125 6.98492 5.125 7.65625V15.5312C5.12563 16.0545 5.28816 16.5648 5.59029 16.9921C5.89242 17.4193 6.31934 17.7426 6.8125 17.9177V9.625C6.8125 8.87908 7.10882 8.16371 7.63626 7.63626C8.16371 7.10882 8.87908 6.8125 9.625 6.8125H17.9177Z" fill="#23BFC1"/>
</svg>
